<svg width="33" height="33" viewBox="0 0 33 33" fill="none" xmlns="http://www.w3.org/2000/svg">
<path d="M16.5 2.75C8.91825 2.75 2.75 7.68488 2.75 13.75C2.75 17.7485 5.35975 21.3331 9.625 23.2843V30.25L16.9675 24.7431C24.3334 24.5465 30.25 19.69 30.25 13.75C30.25 7.68488 24.0817 2.75 16.5 2.75ZM16.5 22H16.0421L12.375 24.75V21.4266L11.4936 21.087C7.79625 19.6639 5.5 16.852 5.5 13.75C5.5 9.20012 10.4349 5.5 16.5 5.5C22.5651 5.5 27.5 9.20012 27.5 13.75C27.5 18.2999 22.5651 22 16.5 22Z" fill="white"/>
<path d="M11.6914 15.9351V17.8573H13.6137L18.9349 12.5443L17.0113 10.6221L11.6914 15.9351Z" fill="white"/>
<path d="M19.8417 11.6379L17.9194 9.71566L19.3866 8.24854L21.3088 10.1708L19.8417 11.6379Z" fill="white"/>
</svg>
