<svg width="25" height="25" viewBox="0 0 25 25" fill="none" xmlns="http://www.w3.org/2000/svg">
<g clip-path="url(#clip0)">
<path d="M12.3296 0.405273C5.64979 0.405273 0.234863 5.8202 0.234863 12.5C0.234863 19.1797 5.64979 24.5947 12.3296 24.5947C19.0093 24.5947 24.4243 19.1797 24.4243 12.5C24.4243 5.8202 19.0093 0.405273 12.3296 0.405273Z" fill="#40B3E0"/>
<path d="M18.2144 7.36259L16.054 18.2543C16.054 18.2543 15.752 19.0097 14.9211 18.6471L9.93601 14.8252L8.12332 13.9491L5.07186 12.9218C5.07186 12.9218 4.60357 12.7557 4.55822 12.3931C4.51286 12.0306 5.08698 11.8342 5.08698 11.8342L17.2172 7.07572C17.2172 7.07572 18.2143 6.63767 18.2143 7.36278" fill="white"/>
<path d="M9.55317 18.1319C9.55317 18.1319 9.40765 18.1183 9.22623 17.5442C9.04509 16.9702 8.12354 13.949 8.12354 13.949L15.4501 9.29627C15.4501 9.29627 15.8731 9.03945 15.858 9.29627C15.858 9.29627 15.9335 9.34163 15.7068 9.5531C15.4803 9.76466 9.95144 14.7345 9.95144 14.7345" fill="#D2E5F1"/>
<path d="M11.8482 16.2906L9.87649 18.0883C9.87649 18.0883 9.72228 18.2053 9.55371 18.132L9.93129 14.7927" fill="#B5CFE4"/>
</g>
<defs>
<clipPath id="clip0">
<rect width="24.1894" height="24.1894" fill="white" transform="translate(0.234863 0.405273)"/>
</clipPath>
</defs>
</svg>
