<svg width="25" height="26" viewBox="0 0 25 26" fill="none" xmlns="http://www.w3.org/2000/svg">
<g clip-path="url(#clip0)">
<g filter="url(#filter0_f)">
<path d="M0.614258 25.1069L2.28752 19.0016C1.25869 17.2151 0.710333 15.1858 0.71599 13.1111C0.71599 6.61004 6.00723 1.32446 12.5083 1.32446C15.6627 1.32446 18.6249 2.5512 20.8466 4.77847C23.0739 7.00575 24.3006 9.96798 24.295 13.1168C24.295 19.6178 19.0037 24.9035 12.5027 24.9035H12.497C10.5241 24.9035 8.58505 24.406 6.86088 23.4675L0.614258 25.1069ZM7.15486 21.3307L7.51097 21.5455C9.01471 22.4387 10.7389 22.9078 12.497 22.9135H12.5027C17.9014 22.9135 22.2994 18.5211 22.2994 13.1168C22.2994 10.4994 21.2819 8.04034 19.4333 6.18604C17.5848 4.33185 15.12 3.31433 12.5027 3.31433C7.09828 3.31433 2.7002 7.70676 2.7002 13.111C2.7002 14.9597 3.21462 16.763 4.19829 18.3233L4.43004 18.6964L3.44081 22.3087L7.15486 21.3307Z" fill="black" fill-opacity="0.24"/>
</g>
<path d="M1.14893 24.4768L2.74562 18.6538C1.76105 16.9458 1.24313 15.0089 1.24383 13.0375C1.24383 6.84042 6.29083 1.79907 12.4821 1.79907C15.4914 1.79907 18.3108 2.97148 20.4323 5.09293C22.5537 7.21447 23.7207 10.0395 23.7207 13.043C23.7207 19.24 18.6737 24.2814 12.4822 24.2814H12.4767C10.5952 24.2814 8.74722 23.8068 7.10586 22.9136L1.14893 24.4769V24.4768Z" fill="url(#paint0_linear)"/>
<path d="M0.741211 24.8844L2.3937 18.8549C1.37765 17.0908 0.836018 15.0865 0.841675 13.0376C0.841675 6.61725 6.06727 1.39722 12.4877 1.39722C15.6029 1.39722 18.5282 2.60864 20.7224 4.80831C22.922 7.00799 24.1335 9.93344 24.128 13.0431C24.128 19.4635 18.9024 24.6835 12.4819 24.6835H12.4765C10.5318 24.6827 8.61826 24.1952 6.91029 23.2654L0.741211 24.8845V24.8844ZM7.20056 21.1551L7.55228 21.3672C9.03739 22.2494 10.7401 22.7128 12.4765 22.7183H12.482C17.8137 22.7183 22.1572 18.3804 22.1572 13.0431C22.1572 10.4583 21.1523 8.02969 19.3267 6.19852C17.501 4.36734 15.0669 3.36241 12.482 3.36241C7.14477 3.36241 2.80131 7.70031 2.80131 13.0376C2.80131 14.8632 3.30929 16.6441 4.28076 18.1849L4.50968 18.5534L3.53265 22.1209L7.20056 21.1551Z" fill="white"/>
<path d="M9.57399 8.16359C9.35619 7.67785 9.12727 7.66664 8.92078 7.66108C8.75331 7.65552 8.55794 7.65552 8.36247 7.65552C8.16711 7.65552 7.8544 7.72809 7.58646 8.01836C7.31843 8.30873 6.57031 9.01217 6.57031 10.4471C6.57031 11.8762 7.61436 13.2607 7.75949 13.4561C7.90463 13.6516 9.77492 16.683 12.7283 17.8499C15.1848 18.8214 15.6873 18.6259 16.2176 18.5757C16.7536 18.5254 17.9372 17.8722 18.1828 17.1911C18.4228 16.51 18.4228 15.9294 18.3503 15.8066C18.2777 15.6837 18.0823 15.6112 17.7919 15.466C17.5017 15.3208 16.0725 14.6174 15.8045 14.5169C15.5365 14.4165 15.3411 14.3718 15.1513 14.6621C14.9558 14.9523 14.3976 15.6055 14.2301 15.801C14.0626 15.9964 13.8896 16.0187 13.5992 15.8736C13.3089 15.7284 12.371 15.4213 11.26 14.4276C10.3947 13.6571 9.80847 12.7024 9.6409 12.4121C9.47343 12.1219 9.62422 11.9654 9.76936 11.8204C9.89772 11.6919 10.0596 11.4798 10.2049 11.3123C10.35 11.1448 10.4002 11.022 10.4951 10.8266C10.59 10.6312 10.5454 10.4637 10.4728 10.3186C10.4002 10.1734 9.83081 8.73858 9.57399 8.16359Z" fill="white"/>
</g>
<defs>
<filter id="filter0_f" x="0.0290305" y="0.739236" width="24.8512" height="24.9529" filterUnits="userSpaceOnUse" color-interpolation-filters="sRGB">
<feFlood flood-opacity="0" result="BackgroundImageFix"/>
<feBlend mode="normal" in="SourceGraphic" in2="BackgroundImageFix" result="shape"/>
<feGaussianBlur stdDeviation="0.292614" result="effect1_foregroundBlur"/>
</filter>
<linearGradient id="paint0_linear" x1="12.4343" y1="24.4753" x2="12.4343" y2="1.79771" gradientUnits="userSpaceOnUse">
<stop stop-color="#20B038"/>
<stop offset="1" stop-color="#60D66A"/>
</linearGradient>
<clipPath id="clip0">
<rect width="24.9697" height="25.0672" fill="white" transform="translate(0 0.625)"/>
</clipPath>
</defs>
</svg>
