<svg width="556" height="566" viewBox="0 0 556 566" fill="none" xmlns="http://www.w3.org/2000/svg">
<path d="M226.098 29.4693C263.282 5.73047 300.462 8.11045 339.062 29.4693C357.56 39.705 369.572 47.06 379.056 65.9546C387.261 82.3017 389.607 94.3167 386.072 112.263C382.063 132.619 358.958 135.853 356.603 156.466C353.36 184.863 379.056 195.674 395.895 218.211C412.76 240.781 405.016 289.778 405.016 289.778L382.564 237.155C382.564 237.155 395.42 279.514 391.685 306.617C388.656 328.603 373.127 337.776 372.039 359.942C371.403 372.909 368.201 382.731 376.249 392.919C387.204 406.787 421.154 398.532 421.154 398.532C421.154 398.532 408.91 420.533 395.895 428.703C380.099 438.618 367.493 435.858 348.885 437.122C288.948 441.195 249.957 428.485 201.541 392.919C175.452 373.755 157.284 362.407 144.708 332.578C134.116 307.455 134.087 290.141 137.691 263.116C143.152 222.167 183.479 210.911 187.508 169.797C189.991 144.46 174.502 130.407 178.386 105.246C183.722 70.6858 196.623 48.287 226.098 29.4693Z" fill="#6B1619"/>
<path d="M270.303 96.8322C289.098 84.4108 309.595 54.0322 313.805 60.3469C323.076 74.2541 316.611 91.2191 316.611 104.55C316.611 112.387 329.942 113.672 329.942 115.075C329.942 118.583 324.34 117.985 322.926 121.39C321.665 124.426 322.926 129.809 322.926 129.809C322.926 129.809 323.92 142.312 320.119 148.754C317.263 153.596 315.217 158.577 309.595 158.577C290.65 158.577 279.424 154.367 279.424 154.367V180.327C279.424 180.327 303.28 197.868 320.119 208.393C327.109 212.762 325.732 228.741 325.732 228.741C325.732 228.741 324.873 253.199 322.926 268.734C319.289 297.753 304.538 312.5 306.087 341.705C308.03 378.352 341.87 439.935 341.87 439.935C341.87 439.935 315.453 453.461 293.457 461.685C260.605 473.968 203.647 461.685 203.647 461.685C203.647 461.685 181.571 451.328 178 440.258C173 424.758 175.86 416.308 184.5 406.758C193.999 396.258 222.591 376.787 222.591 376.787L245.746 362.052V341.705L237.326 315.744L226.1 295.397V332.583L234.168 369.42L210.663 387.145L195.929 308.728L187.509 268.734C187.509 268.734 185.767 252.51 185.404 242.072C185.119 233.857 185.404 221.023 185.404 221.023C185.404 221.023 185.288 212.873 187.509 208.393C190.179 203.009 193.894 201.429 198.736 197.868C205.646 192.787 210.611 191.679 218.381 188.045C225.161 184.875 230.613 185.602 235.923 180.327C242.316 173.975 242.022 167.443 243.641 158.577C245.462 148.603 243.641 132.616 243.641 132.616C243.641 132.616 235.515 132.715 231.713 129.809C226.82 126.071 224.185 123.272 223.293 117.18C222.698 113.113 223.854 107.993 226.1 104.55C228.379 101.054 231.771 99.9072 235.923 100.34C241.514 100.924 245.746 110.865 245.746 110.865C245.746 110.865 261.088 102.922 270.303 96.8322Z" fill="white"/>
<path d="M202.944 221.022C201.361 211.776 200.839 196.464 200.839 196.464L205.049 193.658C205.049 193.658 206.15 206.203 207.154 213.304C209.622 230.756 211.531 240.531 216.275 257.507C222.835 280.982 238.728 315.743 238.728 315.743C238.728 315.743 249.533 321.844 256.97 321.356L256.972 321.356C263.116 320.953 267.966 320.635 271.705 315.743C274.61 311.941 273.584 308.51 274.511 303.815C276.119 295.679 276.304 290.997 277.318 282.766C278.532 272.915 278.996 267.367 280.125 257.507C281.191 248.187 281.582 242.934 282.931 233.651C284.693 221.524 286.12 214.791 288.544 202.779C289.597 197.564 291.351 188.746 291.351 188.746L294.158 190.851C294.158 190.851 290.613 209.707 288.544 221.022C285.464 237.872 282.931 264.523 282.931 264.523C281.886 271.655 281.11 275.626 280.125 282.766C278.842 292.058 277.781 297.253 277.318 306.622C276.98 313.464 277.318 317.313 277.318 324.163C277.318 338.411 274.944 346.599 277.318 360.648C280.37 378.71 294.859 404.15 294.859 404.15C294.859 404.15 278.008 413.26 267.495 419.586C257.465 425.621 251.439 428.49 242.236 435.724C234.918 441.476 230.788 444.825 224.695 451.861C220.462 456.75 217 464.258 217 464.258C217 464.258 213.514 463.758 210.5 463.758L194.524 425.199C194.524 425.199 192.301 412.064 194.524 404.15C196.483 397.18 198.788 393.379 203.646 388.012C210.079 380.905 224.695 375.383 224.695 375.383L238.728 366.261C238.728 366.261 243.668 363.674 244.341 360.648C245.744 354.333 245.557 349.848 244.341 343.107C242.923 335.245 239.565 331.59 236.623 324.163C231.768 311.908 229.495 304.865 224.695 292.589C221.471 284.343 219.218 279.89 216.275 271.54C212.76 261.564 211.232 255.812 208.557 245.579C206.069 236.061 204.605 230.718 202.944 221.022Z" fill="#172654"/>
<path d="M324.336 261.706C326.441 264.513 332.422 266.624 335.56 271.532C338.641 276.353 339.731 279.845 339.765 285.566C339.794 290.352 339.254 293.297 336.955 297.494C334.534 301.911 331.677 303.359 327.831 306.612C322.086 311.47 308.884 315.728 308.884 315.728C308.884 315.728 322.232 258.899 324.336 261.706Z" fill="#172654"/>
<path d="M211.589 68.7568C211.589 68.7568 220.528 74.8664 223.063 80.8685C225.872 87.519 223.063 99.3546 223.063 99.3546C223.063 99.3546 213.862 92.032 211.589 85.3306C209.51 79.2011 211.589 68.7568 211.589 68.7568Z" fill="white"/>
<path d="M233.044 52.1523C233.044 52.1523 239.726 59.9354 240.574 66.0497C241.514 72.8245 236.041 82.967 236.041 82.967C236.041 82.967 229.416 74.0095 228.98 67.3196C228.58 61.2005 233.044 52.1523 233.044 52.1523Z" fill="white"/>
<path d="M250.055 38.2089C250.055 38.2089 254.596 45.8719 254.399 51.2282C254.181 57.1632 247.972 65.0112 247.972 65.0112C247.972 65.0112 243.657 56.3526 244.293 50.5661C244.874 45.2733 250.055 38.2089 250.055 38.2089Z" fill="white"/>
<path d="M279.983 64.6574C279.983 64.6574 274.35 70.6252 269.557 71.8116C264.246 73.1262 255.719 69.6216 255.719 69.6216C255.719 69.6216 262.291 63.6012 267.576 62.6939C272.411 61.864 279.983 64.6574 279.983 64.6574Z" fill="white"/>
<path d="M270.118 20.0621C270.118 20.0621 274.355 28.8854 273.627 34.7298C272.82 41.2057 265.271 49.2018 265.271 49.2018C265.271 49.2018 261.378 39.3103 262.627 33.037C263.77 27.2988 270.118 20.0621 270.118 20.0621Z" fill="white"/>
<path d="M297.892 47.2559C297.892 47.2559 290.466 53.6319 284.632 54.441C278.168 55.3375 268.491 50.116 268.491 50.116C268.491 50.116 277.037 43.7948 283.42 43.3783C289.259 42.9973 297.892 47.2559 297.892 47.2559Z" fill="white"/>
<path d="M314.731 30.4141C314.731 30.4141 307.305 36.7901 301.471 37.5992C295.007 38.4957 285.33 33.2742 285.33 33.2742C285.33 33.2742 293.876 26.953 300.26 26.5365C306.098 26.1555 314.731 30.4141 314.731 30.4141Z" fill="white"/>
<path d="M290.647 0.445475C290.647 0.445475 294.286 9.25625 293.26 14.8998C292.122 21.153 284.346 28.5172 284.346 28.5172C284.346 28.5172 281.099 18.6864 282.656 12.6542C284.08 7.13663 290.647 0.445475 290.647 0.445475Z" fill="white"/>
<path d="M272.206 86.5914C272.206 86.5914 263.032 92.3899 256.502 92.3378C249.266 92.2801 239.491 84.9931 239.491 84.9931C239.491 84.9931 249.885 79.4352 256.955 80.0064C263.421 80.5289 272.206 86.5914 272.206 86.5914Z" fill="white"/>
<path d="M283.632 91.208C283.632 91.208 291.67 96.3269 297.5 97.1904C300.816 97.6818 306.084 97.1904 306.084 97.1904V103.838C306.084 103.838 297.522 102.591 292.877 99.8493C288.627 97.3411 283.632 91.208 283.632 91.208Z" fill="#172654"/>
<path d="M275.213 77.1768L306.085 78.58V84.1932C306.085 84.1932 299.306 81.8581 294.765 80.685C287.382 78.7774 275.213 77.1768 275.213 77.1768Z" fill="#172654"/>
<path d="M315.906 136.097C315.906 136.097 325.572 127.044 325.729 131.973C325.795 134.059 323.624 136.819 323.624 136.819C323.624 136.819 326.65 139.924 325.729 141.796C325.038 143.2 321.105 143.591 319.414 141.796C318.011 140.307 317.752 140.015 316.607 137.586C315.906 136.097 315.906 136.097 315.906 136.097Z" fill="#172654"/>
<path d="M55.2631 529.228V541.258H11.075V486.219H54.241V498.249H26.4858V507.527H50.9387V519.164H26.4858V529.228H55.2631ZM98.1945 541.258L86.7936 524.196L75.55 541.258H57.7804L77.8302 513.424L58.6453 486.219H76.179L87.1867 502.102L98.0372 486.219H114.863L95.6784 512.795L116.121 541.258H98.1945ZM130.748 498.564H113.844V486.219H163.143V498.564H146.316V541.258H130.748V498.564ZM193.002 526.633H184.511V541.258H168.942V486.219H194.103C199.083 486.219 203.407 487.058 207.076 488.735C210.746 490.36 213.576 492.719 215.568 495.812C217.56 498.852 218.556 502.442 218.556 506.583C218.556 510.567 217.612 514.053 215.725 517.041C213.891 519.976 211.244 522.283 207.784 523.96L219.657 541.258H202.988L193.002 526.633ZM202.831 506.583C202.831 504.015 202.018 502.023 200.393 500.608C198.768 499.193 196.357 498.485 193.159 498.485H184.511V514.603H193.159C196.357 514.603 198.768 513.922 200.393 512.559C202.018 511.144 202.831 509.152 202.831 506.583ZM264.02 530.565H240.747L236.423 541.258H220.54L244.836 486.219H260.168L284.542 541.258H268.345L264.02 530.565ZM259.46 519.085L252.384 501.473L245.307 519.085H259.46ZM348.713 512.559H362.473V535.361C359.328 537.615 355.711 539.345 351.622 540.55C347.534 541.756 343.445 542.359 339.356 542.359C333.59 542.359 328.401 541.153 323.788 538.742C319.176 536.278 315.559 532.871 312.938 528.52C310.317 524.17 309.007 519.242 309.007 513.738C309.007 508.235 310.317 503.307 312.938 498.957C315.559 494.606 319.202 491.225 323.867 488.814C328.532 486.35 333.8 485.118 339.671 485.118C344.808 485.118 349.421 485.983 353.509 487.713C357.598 489.443 361.005 491.933 363.731 495.183L353.824 504.146C350.102 500.057 345.647 498.013 340.457 498.013C335.74 498.013 331.939 499.455 329.056 502.338C326.173 505.168 324.732 508.968 324.732 513.738C324.732 516.779 325.387 519.504 326.698 521.916C328.008 524.274 329.843 526.135 332.201 527.498C334.56 528.809 337.26 529.464 340.3 529.464C343.288 529.464 346.092 528.861 348.713 527.655V512.559ZM372.343 486.219H387.911V541.258H372.343V486.219ZM423.046 526.633H414.555V541.258H398.987V486.219H424.147C429.127 486.219 433.451 487.058 437.121 488.735C440.79 490.36 443.62 492.719 445.612 495.812C447.604 498.852 448.6 502.442 448.6 506.583C448.6 510.567 447.657 514.053 445.77 517.041C443.935 519.976 441.288 522.283 437.828 523.96L449.701 541.258H433.032L423.046 526.633ZM432.875 506.583C432.875 504.015 432.062 502.023 430.437 500.608C428.812 499.193 426.401 498.485 423.204 498.485H414.555V514.603H423.204C426.401 514.603 428.812 513.922 430.437 512.559C432.062 511.144 432.875 509.152 432.875 506.583ZM457.189 486.219H472.757V528.913H499.018V541.258H457.189V486.219ZM524.367 542.359C519.912 542.359 515.587 541.808 511.394 540.707C507.2 539.607 503.793 538.139 501.172 536.304L506.283 524.825C508.747 526.45 511.604 527.76 514.853 528.756C518.103 529.752 521.301 530.25 524.446 530.25C530.421 530.25 533.409 528.756 533.409 525.768C533.409 524.196 532.544 523.043 530.815 522.309C529.137 521.523 526.412 520.71 522.637 519.871C518.496 518.98 515.037 518.037 512.259 517.041C509.481 515.992 507.096 514.341 505.104 512.087C503.112 509.833 502.116 506.793 502.116 502.967C502.116 499.612 503.033 496.598 504.868 493.925C506.702 491.199 509.428 489.05 513.045 487.477C516.714 485.905 521.196 485.118 526.49 485.118C530.107 485.118 533.671 485.538 537.183 486.376C540.695 487.163 543.788 488.342 546.461 489.915L541.665 501.473C536.423 498.642 531.339 497.227 526.412 497.227C523.319 497.227 521.065 497.699 519.65 498.642C518.234 499.533 517.527 500.713 517.527 502.18C517.527 503.648 518.365 504.749 520.043 505.483C521.72 506.217 524.42 506.977 528.141 507.763C532.335 508.654 535.794 509.624 538.52 510.672C541.298 511.668 543.683 513.293 545.675 515.547C547.719 517.748 548.741 520.762 548.741 524.589C548.741 527.891 547.824 530.879 545.99 533.552C544.155 536.226 541.403 538.375 537.734 540C534.065 541.572 529.609 542.359 524.367 542.359Z" fill="white"/>
</svg>
