<svg width="556" height="566" viewBox="0 0 556 566" fill="none" xmlns="http://www.w3.org/2000/svg">
<path d="M226.099 30.2114C263.282 6.47266 300.463 8.85263 339.063 30.2114C357.561 40.4472 369.572 47.8022 379.056 66.6968C387.262 83.0439 389.607 95.0589 386.073 113.005C382.063 133.361 358.958 136.595 356.604 157.208C353.36 185.605 379.056 196.416 395.896 218.953C412.76 241.523 405.017 290.52 405.017 290.52L382.564 237.897C382.564 237.897 395.42 280.256 391.686 307.359C388.657 329.345 373.127 338.518 372.04 360.684C371.404 373.651 368.202 383.474 376.25 393.661C387.205 407.529 421.155 399.274 421.155 399.274C421.155 399.274 408.91 421.276 395.896 429.445C380.099 439.36 367.493 436.6 348.886 437.865C288.949 441.937 249.957 429.227 201.541 393.661C175.452 374.497 157.284 363.149 144.708 333.32C134.116 308.197 134.088 290.883 137.692 263.858C143.152 222.91 183.479 211.653 187.508 170.54C189.991 145.202 174.502 131.15 178.387 105.989C183.723 71.428 196.623 49.0291 226.099 30.2114Z" fill="url(#paint0_linear)"/>
<path d="M270.303 97.5744C289.098 85.153 309.595 54.7743 313.805 61.0891C323.077 74.9963 316.612 91.9613 316.612 105.292C316.612 113.129 329.943 114.414 329.943 115.817C329.943 119.325 324.34 118.727 322.926 122.132C321.665 125.169 322.926 130.552 322.926 130.552C322.926 130.552 323.92 143.054 320.12 149.496C317.263 154.338 315.217 159.319 309.595 159.319C290.651 159.319 279.425 155.109 279.425 155.109V181.07C279.425 181.07 303.281 198.611 320.12 209.135C327.11 213.504 325.733 229.483 325.733 229.483C325.733 229.483 324.873 253.941 322.926 269.476C319.29 298.495 304.538 313.242 306.087 342.447C308.031 379.094 341.871 440.677 341.871 440.677C341.871 440.677 315.454 454.204 293.458 462.428C260.606 474.71 203.648 462.428 203.648 462.428C203.648 462.428 181.571 452.07 178 441C173 425.5 175.86 417.05 184.5 407.5C193.999 397 222.592 377.529 222.592 377.529L245.746 362.795V342.447L237.326 316.486L226.1 296.139V333.326L234.169 370.162L210.664 387.887L195.929 309.47L187.51 269.476C187.51 269.476 185.767 253.252 185.405 242.814C185.12 234.599 185.405 221.765 185.405 221.765C185.405 221.765 185.288 213.615 187.51 209.135C190.18 203.752 193.895 202.171 198.736 198.611C205.647 193.529 210.612 192.421 218.382 188.788C225.161 185.618 230.614 186.344 235.923 181.07C242.317 174.717 242.022 168.185 243.641 159.319C245.462 149.345 243.641 133.358 243.641 133.358C243.641 133.358 235.515 133.457 231.713 130.552C226.821 126.813 224.185 124.015 223.293 117.922C222.698 113.855 223.855 108.735 226.1 105.292C228.38 101.797 231.772 100.649 235.923 101.083C241.515 101.666 245.746 111.607 245.746 111.607C245.746 111.607 261.088 103.664 270.303 97.5744Z" fill="white"/>
<path d="M202.944 221.764C201.361 212.518 200.839 197.206 200.839 197.206L205.049 194.4C205.049 194.4 206.15 206.945 207.154 214.046C209.622 231.498 211.531 241.273 216.275 258.249C222.835 281.724 238.728 316.485 238.728 316.485C238.728 316.485 249.533 322.586 256.97 322.098L256.972 322.098C263.116 321.695 267.966 321.377 271.705 316.485C274.61 312.683 273.584 309.252 274.511 304.557C276.119 296.422 276.304 291.739 277.318 283.508C278.532 273.658 278.996 268.11 280.125 258.249C281.191 248.929 281.582 243.676 282.931 234.393C284.693 222.267 286.12 215.533 288.544 203.521C289.597 198.306 291.351 189.488 291.351 189.488L294.158 191.593C294.158 191.593 290.613 210.45 288.544 221.764C285.464 238.614 282.931 265.265 282.931 265.265C281.886 272.397 281.11 276.368 280.125 283.508C278.842 292.8 277.781 297.995 277.318 307.364C276.98 314.206 277.318 318.055 277.318 324.905C277.318 339.153 274.944 347.341 277.318 361.39C280.37 379.452 294.859 404.892 294.859 404.892C294.859 404.892 278.008 414.002 267.495 420.328C257.465 426.364 251.439 429.232 242.236 436.466C234.918 442.218 230.788 445.567 224.695 452.604C220.462 457.492 217 465 217 465C217 465 213.514 464.5 210.5 464.5L194.524 425.941C194.524 425.941 192.301 412.806 194.524 404.892C196.483 397.923 198.788 394.121 203.646 388.754C210.079 381.647 224.695 376.125 224.695 376.125L238.728 367.003C238.728 367.003 243.668 364.416 244.341 361.39C245.744 355.075 245.557 350.591 244.341 343.849C242.923 335.987 239.565 332.332 236.623 324.905C231.768 312.651 229.495 305.607 224.695 293.331C221.471 285.086 219.218 280.632 216.275 272.282C212.76 262.306 211.232 256.554 208.557 246.321C206.069 236.803 204.605 231.46 202.944 221.764Z" fill="#172654"/>
<path d="M324.336 262.448C326.441 265.255 332.422 267.366 335.56 272.275C338.641 277.095 339.731 280.587 339.765 286.309C339.794 291.094 339.254 294.039 336.955 298.236C334.534 302.654 331.677 304.101 327.831 307.354C322.086 312.213 308.884 316.47 308.884 316.47C308.884 316.47 322.232 259.641 324.336 262.448Z" fill="#172654"/>
<path d="M211.589 69.499C211.589 69.499 220.528 75.6086 223.063 81.6106C225.872 88.2612 223.063 100.097 223.063 100.097C223.063 100.097 213.862 92.7742 211.589 86.0728C209.51 79.9432 211.589 69.499 211.589 69.499Z" fill="#172654"/>
<path d="M233.044 52.8945C233.044 52.8945 239.726 60.6776 240.574 66.7919C241.514 73.5667 236.041 83.7092 236.041 83.7092C236.041 83.7092 229.416 74.7517 228.98 68.0618C228.58 61.9427 233.044 52.8945 233.044 52.8945Z" fill="#172654"/>
<path d="M250.054 38.9516C250.054 38.9516 254.595 46.6145 254.398 51.9709C254.18 57.9059 247.972 65.7539 247.972 65.7539C247.972 65.7539 243.657 57.0953 244.292 51.3087C244.873 46.0159 250.054 38.9516 250.054 38.9516Z" fill="#172654"/>
<path d="M279.983 65.4001C279.983 65.4001 274.351 71.3679 269.558 72.5543C264.247 73.8689 255.72 70.3643 255.72 70.3643C255.72 70.3643 262.291 64.3439 267.577 63.4366C272.411 62.6067 279.983 65.4001 279.983 65.4001Z" fill="#172654"/>
<path d="M270.119 20.8048C270.119 20.8048 274.356 29.628 273.627 35.4725C272.82 41.9484 265.272 49.9444 265.272 49.9444C265.272 49.9444 261.378 40.053 262.628 33.7796C263.771 28.0415 270.119 20.8048 270.119 20.8048Z" fill="#172654"/>
<path d="M297.891 47.9981C297.891 47.9981 290.465 54.3741 284.631 55.1832C278.167 56.0797 268.49 50.8581 268.49 50.8581C268.49 50.8581 277.037 44.537 283.42 44.1205C289.258 43.7395 297.891 47.9981 297.891 47.9981Z" fill="#172654"/>
<path d="M314.731 31.1568C314.731 31.1568 307.305 37.5328 301.471 38.3419C295.007 39.2384 285.33 34.0168 285.33 34.0168C285.33 34.0168 293.876 27.6957 300.26 27.2791C306.098 26.8982 314.731 31.1568 314.731 31.1568Z" fill="#172654"/>
<path d="M290.647 1.18815C290.647 1.18815 294.286 9.99893 293.26 15.6425C292.122 21.8957 284.346 29.2599 284.346 29.2599C284.346 29.2599 281.099 19.429 282.656 13.3968C284.08 7.87931 290.647 1.18815 290.647 1.18815Z" fill="#172654"/>
<path d="M272.206 87.3345C272.206 87.3345 263.032 93.1331 256.502 93.081C249.266 93.0233 239.491 85.7363 239.491 85.7363C239.491 85.7363 249.885 80.1783 256.955 80.7496C263.421 81.2721 272.206 87.3345 272.206 87.3345Z" fill="#172654"/>
<path d="M283.632 91.9507C283.632 91.9507 291.67 97.0696 297.5 97.9331C300.816 98.4244 306.084 97.9331 306.084 97.9331V104.58C306.084 104.58 297.522 103.333 292.877 100.592C288.627 98.0838 283.632 91.9507 283.632 91.9507Z" fill="#172654"/>
<path d="M275.213 77.9199L306.085 79.3232V84.9363C306.085 84.9363 299.306 82.6013 294.765 81.4281C287.382 79.5206 275.213 77.9199 275.213 77.9199Z" fill="#FE0444"/>
<path d="M315.906 136.84C315.906 136.84 325.573 127.787 325.729 132.717C325.795 134.802 323.624 137.562 323.624 137.562C323.624 137.562 326.651 140.667 325.729 142.54C325.039 143.943 321.106 144.334 319.414 142.54C318.011 141.05 317.752 140.759 316.608 138.33C315.906 136.84 315.906 136.84 315.906 136.84Z" fill="#172654"/>
<path d="M55.2631 529.97V542H11.075V486.961H54.241V498.991H26.4858V508.269H50.9387V519.906H26.4858V529.97H55.2631ZM98.1945 542L86.7936 524.938L75.55 542H57.7804L77.8302 514.166L58.6453 486.961H76.179L87.1867 502.844L98.0372 486.961H114.863L95.6784 513.537L116.121 542H98.1945ZM130.748 499.306H113.844V486.961H163.143V499.306H146.316V542H130.748V499.306ZM193.002 527.375H184.511V542H168.942V486.961H194.103C199.083 486.961 203.407 487.8 207.076 489.477C210.746 491.102 213.576 493.461 215.568 496.554C217.56 499.594 218.556 503.185 218.556 507.326C218.556 511.309 217.612 514.795 215.725 517.783C213.891 520.718 211.244 523.025 207.784 524.702L219.657 542H202.988L193.002 527.375ZM202.831 507.326C202.831 504.757 202.018 502.765 200.393 501.35C198.768 499.935 196.357 499.227 193.159 499.227H184.511V515.346H193.159C196.357 515.346 198.768 514.664 200.393 513.301C202.018 511.886 202.831 509.894 202.831 507.326ZM264.02 531.307H240.747L236.423 542H220.54L244.836 486.961H260.168L284.542 542H268.345L264.02 531.307ZM259.46 519.827L252.384 502.215L245.307 519.827H259.46ZM348.713 513.301H362.473V536.103C359.328 538.357 355.711 540.087 351.622 541.292C347.534 542.498 343.445 543.101 339.356 543.101C333.59 543.101 328.401 541.895 323.788 539.484C319.176 537.02 315.559 533.613 312.938 529.262C310.317 524.912 309.007 519.985 309.007 514.481C309.007 508.977 310.317 504.05 312.938 499.699C315.559 495.348 319.202 491.967 323.867 489.556C328.532 487.092 333.8 485.861 339.671 485.861C344.808 485.861 349.421 486.725 353.509 488.455C357.598 490.185 361.005 492.675 363.731 495.925L353.824 504.888C350.102 500.8 345.647 498.755 340.457 498.755C335.74 498.755 331.939 500.197 329.056 503.08C326.173 505.91 324.732 509.711 324.732 514.481C324.732 517.521 325.387 520.247 326.698 522.658C328.008 525.017 329.843 526.877 332.201 528.24C334.56 529.551 337.26 530.206 340.3 530.206C343.288 530.206 346.092 529.603 348.713 528.398V513.301ZM372.343 486.961H387.911V542H372.343V486.961ZM423.046 527.375H414.555V542H398.987V486.961H424.147C429.127 486.961 433.451 487.8 437.121 489.477C440.79 491.102 443.62 493.461 445.612 496.554C447.604 499.594 448.6 503.185 448.6 507.326C448.6 511.309 447.657 514.795 445.77 517.783C443.935 520.718 441.288 523.025 437.828 524.702L449.701 542H433.032L423.046 527.375ZM432.875 507.326C432.875 504.757 432.062 502.765 430.437 501.35C428.812 499.935 426.401 499.227 423.204 499.227H414.555V515.346H423.204C426.401 515.346 428.812 514.664 430.437 513.301C432.062 511.886 432.875 509.894 432.875 507.326ZM457.189 486.961H472.757V529.656H499.018V542H457.189V486.961ZM524.367 543.101C519.912 543.101 515.587 542.55 511.394 541.45C507.2 540.349 503.793 538.881 501.172 537.047L506.283 525.567C508.747 527.192 511.604 528.502 514.853 529.498C518.103 530.494 521.301 530.992 524.446 530.992C530.421 530.992 533.409 529.498 533.409 526.511C533.409 524.938 532.544 523.785 530.815 523.051C529.137 522.265 526.412 521.452 522.637 520.614C518.496 519.722 515.037 518.779 512.259 517.783C509.481 516.735 507.096 515.083 505.104 512.83C503.112 510.576 502.116 507.535 502.116 503.709C502.116 500.354 503.033 497.34 504.868 494.667C506.702 491.941 509.428 489.792 513.045 488.219C516.714 486.647 521.196 485.861 526.49 485.861C530.107 485.861 533.671 486.28 537.183 487.119C540.695 487.905 543.788 489.084 546.461 490.657L541.665 502.215C536.423 499.384 531.339 497.969 526.412 497.969C523.319 497.969 521.065 498.441 519.65 499.384C518.234 500.275 517.527 501.455 517.527 502.923C517.527 504.39 518.365 505.491 520.043 506.225C521.72 506.959 524.42 507.719 528.141 508.505C532.335 509.396 535.794 510.366 538.52 511.414C541.298 512.41 543.683 514.035 545.675 516.289C547.719 518.491 548.741 521.505 548.741 525.331C548.741 528.633 547.824 531.621 545.99 534.295C544.155 536.968 541.403 539.117 537.734 540.742C534.065 542.315 529.609 543.101 524.367 543.101Z" fill="url(#paint1_linear)"/>
<defs>
<linearGradient id="paint0_linear" x1="135.534" y1="225.942" x2="421.155" y2="225.942" gradientUnits="userSpaceOnUse">
<stop stop-color="#E52D27"/>
<stop offset="1" stop-color="#B31217"/>
</linearGradient>
<linearGradient id="paint1_linear" x1="0" y1="514" x2="556" y2="514" gradientUnits="userSpaceOnUse">
<stop stop-color="#E52D27"/>
<stop offset="1" stop-color="#B31217"/>
</linearGradient>
</defs>
</svg>
